<svg width="25" height="25" viewBox="0 0 25 25" fill="none" xmlns="http://www.w3.org/2000/svg">
<path d="M23.9583 3.57143H17.7083V2.23214C17.7083 1.64014 17.434 1.07239 16.9456 0.65378C16.4572 0.235172 15.7948 0 15.1042 0H9.89583C9.20516 0 8.54278 0.235172 8.05441 0.65378C7.56603 1.07239 7.29167 1.64014 7.29167 2.23214V3.57143H1.04167C0.765399 3.57143 0.500448 3.6655 0.305097 3.83294C0.109747 4.00038 0 4.22749 0 4.46429C0 4.70109 0.109747 4.92819 0.305097 5.09563C0.500448 5.26307 0.765399 5.35714 1.04167 5.35714H2.14844L3.38542 22.3728C3.47786 23.8711 4.81771 25 6.51042 25H18.4896C20.1908 25 21.5039 23.8962 21.6146 22.3772L22.8516 5.35714H23.9583C24.2346 5.35714 24.4996 5.26307 24.6949 5.09563C24.8903 4.92819 25 4.70109 25 4.46429C25 4.22749 24.8903 4.00038 24.6949 3.83294C24.4996 3.6655 24.2346 3.57143 23.9583 3.57143ZM8.37044 21.4286H8.33333C8.06338 21.4287 7.8039 21.339 7.60958 21.1784C7.41526 21.0178 7.30128 20.7988 7.29167 20.5675L6.77083 8.06752C6.76099 7.83072 6.8613 7.60027 7.04969 7.42686C7.23808 7.25345 7.49912 7.15129 7.77539 7.14286C8.05166 7.13442 8.32052 7.2204 8.52283 7.38188C8.72514 7.54335 8.84432 7.76711 8.85417 8.00391L9.375 20.5039C9.37996 20.6212 9.3579 20.7381 9.31009 20.8481C9.26227 20.958 9.18964 21.0588 9.09634 21.1447C9.00304 21.2306 8.89091 21.2999 8.76635 21.3486C8.6418 21.3973 8.50726 21.4245 8.37044 21.4286ZM13.5417 20.5357C13.5417 20.7725 13.4319 20.9996 13.2366 21.1671C13.0412 21.3345 12.7763 21.4286 12.5 21.4286C12.2237 21.4286 11.9588 21.3345 11.7634 21.1671C11.5681 20.9996 11.4583 20.7725 11.4583 20.5357V8.03571C11.4583 7.79891 11.5681 7.57181 11.7634 7.40437C11.9588 7.23693 12.2237 7.14286 12.5 7.14286C12.7763 7.14286 13.0412 7.23693 13.2366 7.40437C13.4319 7.57181 13.5417 7.79891 13.5417 8.03571V20.5357ZM15.625 3.57143H9.375V2.23214C9.37421 2.17333 9.38715 2.11498 9.41305 2.06051C9.43894 2.00604 9.47728 1.95656 9.5258 1.91497C9.57432 1.87338 9.63205 1.84052 9.69559 1.81833C9.75914 1.79613 9.82722 1.78504 9.89583 1.78571H15.1042C15.1728 1.78504 15.2409 1.79613 15.3044 1.81833C15.368 1.84052 15.4257 1.87338 15.4742 1.91497C15.5227 1.95656 15.5611 2.00604 15.587 2.06051C15.6129 2.11498 15.6258 2.17333 15.625 2.23214V3.57143ZM17.7083 20.5675C17.6987 20.7988 17.5847 21.0178 17.3904 21.1784C17.1961 21.339 16.9366 21.4287 16.6667 21.4286H16.6289C16.4921 21.4244 16.3577 21.3972 16.2332 21.3484C16.1087 21.2997 15.9967 21.2304 15.9034 21.1445C15.8102 21.0587 15.7376 20.9579 15.6898 20.848C15.6421 20.738 15.62 20.6211 15.625 20.5039L16.1458 8.00391C16.1507 7.88665 16.1825 7.77137 16.2393 7.66465C16.2962 7.55792 16.377 7.46183 16.4772 7.38188C16.5773 7.30192 16.6949 7.23966 16.8232 7.19865C16.9514 7.15764 17.0878 7.13868 17.2246 7.14286C17.3614 7.14703 17.4959 7.17426 17.6204 7.22299C17.7449 7.27172 17.857 7.341 17.9503 7.42686C18.0436 7.51272 18.1162 7.61349 18.1641 7.72342C18.2119 7.83334 18.234 7.95027 18.2292 8.06752L17.7083 20.5675Z" fill="#F57878"/>
</svg>
